<?xml version="1.0" encoding="utf-8"?>
<!-- Generator: Adobe Illustrator 22.1.0, SVG Export Plug-In . SVG Version: 6.00 Build 0)  -->
<svg version="1.1" id="Layer_1" xmlns="http://www.w3.org/2000/svg" xmlns:xlink="http://www.w3.org/1999/xlink" x="0px" y="0px"
	 viewBox="0 0 155 155" style="enable-background:new 0 0 155 155;" xml:space="preserve">
<style type="text/css">
	.st0{fill:#101010;}
	.st1{fill:none;stroke:#101010;stroke-width:5;stroke-miterlimit:10;}
</style>
<g>
	<g>
		<polygon class="st0" points="48.2,66.9 48.2,36.6 39.3,41.5 39.3,72 		"/>
		<polygon class="st0" points="80.5,103.3 106.8,118.4 115.7,113.5 115.7,113.5 89.3,98.2 		"/>
		<polygon class="st0" points="74.5,89.7 56.3,79.2 51.2,82.2 51.2,86.4 65.7,94.8 		"/>
		<polygon class="st0" points="115.7,72 115.7,41.5 106.8,36.6 106.8,66.9 		"/>
		<polygon class="st0" points="103.8,82.2 98.7,79.2 39.3,113.5 39.3,113.5 48.2,118.4 103.8,86.4 		"/>
		<polygon class="st0" points="39.3,41.5 48.2,36.6 115.7,75.5 115.7,113.5 106.8,118.4 106.8,80.4 		"/>
		<polygon class="st0" points="65.7,60.2 39.3,75.5 39.3,113.5 48.2,118.4 48.2,80.4 74.5,65.3 		"/>
		<polygon class="st0" points="89.3,56.8 115.7,41.5 106.8,36.6 80.5,51.7 		"/>
	</g>
	<path class="st1" d="M18.7,38.6L73.2,7.1c2.7-1.5,5.9-1.5,8.6,0l54.5,31.5c2.7,1.5,4.3,4.4,4.3,7.4v63c0,3.1-1.6,5.9-4.3,7.4
		l-54.5,31.5c-2.7,1.5-5.9,1.5-8.6,0l-54.5-31.5c-2.7-1.5-4.3-4.4-4.3-7.4V46C14.4,43,16,40.1,18.7,38.6z"/>
</g>
</svg>
